<svg  viewBox="0 0 159 159" fill="none" xmlns="http://www.w3.org/2000/svg">
<path d="M79.5 159C89.9401 159 100.278 156.944 109.923 152.948C119.569 148.953 128.333 143.097 135.715 135.715C143.097 128.333 148.953 119.569 152.948 109.923C156.944 100.278 159 89.9401 159 79.5C159 69.0599 156.944 58.7221 152.948 49.0767C148.953 39.4313 143.097 30.6673 135.715 23.285C128.333 15.9028 119.569 10.0468 109.923 6.05158C100.278 2.05633 89.9401 -2.20008e-07 79.5 0C58.4153 4.44327e-07 38.1941 8.37587 23.285 23.285C8.37586 38.1942 0 58.4153 0 79.5C0 100.585 8.37586 120.806 23.285 135.715C38.1941 150.624 58.4153 159 79.5 159V159Z" fill="url(#paint0_radial_3_196)"/>
<path d="M79.5 159C89.9401 159 100.278 156.944 109.923 152.948C119.569 148.953 128.333 143.097 135.715 135.715C143.097 128.333 148.953 119.569 152.948 109.923C156.944 100.278 159 89.9401 159 79.5C159 69.0599 156.944 58.7221 152.948 49.0767C148.953 39.4313 143.097 30.6673 135.715 23.285C128.333 15.9028 119.569 10.0468 109.923 6.05158C100.278 2.05633 89.9401 -2.20008e-07 79.5 0C58.4153 4.44327e-07 38.1941 8.37587 23.285 23.285C8.37586 38.1942 0 58.4153 0 79.5C0 100.585 8.37586 120.806 23.285 135.715C38.1941 150.624 58.4153 159 79.5 159V159Z" fill="url(#paint1_radial_3_196)"/>
<defs>
<radialGradient id="paint0_radial_3_196" cx="0" cy="0" r="1" gradientUnits="userSpaceOnUse" gradientTransform="translate(39.2301 139.571) rotate(-45) scale(121.339 92.6388)">
<stop offset="0.415" stop-color="#D893FF"/>
<stop offset="1" stop-color="#E8EEFE"/>
</radialGradient>
<radialGradient id="paint1_radial_3_196" cx="0" cy="0" r="1" gradientUnits="userSpaceOnUse" gradientTransform="translate(119.162 104.629) rotate(-138.606) scale(126.429 145.781)">
<stop offset="0.723" stop-color="#9FD2F5" stop-opacity="0"/>
<stop offset="1" stop-color="#9FD2F5"/>
</radialGradient>
</defs>
</svg>
