<svg width="64" height="55" viewBox="0 0 64 55" fill="none" xmlns="http://www.w3.org/2000/svg">
<g filter="url(#filter0_d_1_41)">
<g filter="url(#filter1_i_1_41)">
<path d="M41.0605 12.2731C41.0605 11.9883 41.1736 11.7152 41.375 11.5139C41.5763 11.3125 41.8494 11.1994 42.1342 11.1994H50.5415C50.8263 11.1994 51.0994 11.3125 51.3007 11.5139C51.5021 11.7152 51.6152 11.9883 51.6152 12.2731V14.2201H41.0605V12.2713V12.2731Z" fill="url(#paint0_linear_1_41)"/>
<path d="M41.0605 12.2731C41.0605 11.9883 41.1736 11.7152 41.375 11.5139C41.5763 11.3125 41.8494 11.1994 42.1342 11.1994H50.5415C50.8263 11.1994 51.0994 11.3125 51.3007 11.5139C51.5021 11.7152 51.6152 11.9883 51.6152 12.2731V14.2201H41.0605V12.2713V12.2731Z" fill="url(#paint1_radial_1_41)"/>
</g>
<g filter="url(#filter2_i_1_41)">
<path d="M12.4546 12.1836C12.4546 11.9226 12.5582 11.6722 12.7428 11.4877C12.9274 11.3031 13.1778 11.1994 13.4388 11.1994H18.573C18.8341 11.1994 19.0844 11.3031 19.269 11.4877C19.4536 11.6722 19.5573 11.9226 19.5573 12.1836V14.2201H12.4546V12.1818V12.1836Z" fill="url(#paint2_linear_1_41)"/>
<path d="M12.4546 12.1836C12.4546 11.9226 12.5582 11.6722 12.7428 11.4877C12.9274 11.3031 13.1778 11.1994 13.4388 11.1994H18.573C18.8341 11.1994 19.0844 11.3031 19.269 11.4877C19.4536 11.6722 19.5573 11.9226 19.5573 12.1836V14.2201H12.4546V12.1818V12.1836Z" fill="url(#paint3_radial_1_41)"/>
</g>
<path d="M7.0018 41.8186C7.0018 43.5634 8.41554 44.9771 10.1604 44.9771H53.8397C55.5827 44.9771 56.9982 43.5634 56.9982 41.8186C56.9982 41.7887 56.9863 41.76 56.9652 41.7388C56.9441 41.7177 56.9154 41.7058 56.8855 41.7058H7.11454C7.08464 41.7058 7.05597 41.7177 7.03482 41.7388C7.01368 41.76 7.0018 41.7887 7.0018 41.8186V41.8186Z" fill="url(#paint4_linear_1_41)"/>
<path d="M7.0018 41.8186C7.0018 43.5634 8.41554 44.9771 10.1604 44.9771H53.8397C55.5827 44.9771 56.9982 43.5634 56.9982 41.8186C56.9982 41.7887 56.9863 41.76 56.9652 41.7388C56.9441 41.7177 56.9154 41.7058 56.8855 41.7058H7.11454C7.08464 41.7058 7.05597 41.7177 7.03482 41.7388C7.01368 41.76 7.0018 41.7887 7.0018 41.8186V41.8186Z" fill="url(#paint5_linear_1_41)"/>
<path d="M7.0018 41.8186C7.0018 43.5634 8.41554 44.9771 10.1604 44.9771H53.8397C55.5827 44.9771 56.9982 43.5634 56.9982 41.8186C56.9982 41.7887 56.9863 41.76 56.9652 41.7388C56.9441 41.7177 56.9154 41.7058 56.8855 41.7058H7.11454C7.08464 41.7058 7.05597 41.7177 7.03482 41.7388C7.01368 41.76 7.0018 41.7887 7.0018 41.8186V41.8186Z" fill="url(#paint6_linear_1_41)"/>
<path d="M7.0018 41.8186C7.0018 43.5634 8.41554 44.9771 10.1604 44.9771H53.8397C55.5827 44.9771 56.9982 43.5634 56.9982 41.8186C56.9982 41.7887 56.9863 41.76 56.9652 41.7388C56.9441 41.7177 56.9154 41.7058 56.8855 41.7058H7.11454C7.08464 41.7058 7.05597 41.7177 7.03482 41.7388C7.01368 41.76 7.0018 41.7887 7.0018 41.8186V41.8186Z" fill="url(#paint7_radial_1_41)"/>
<path d="M7.0018 41.8186C7.0018 43.5634 8.41554 44.9771 10.1604 44.9771H53.8397C55.5827 44.9771 56.9982 43.5634 56.9982 41.8186C56.9982 41.7887 56.9863 41.76 56.9652 41.7388C56.9441 41.7177 56.9154 41.7058 56.8855 41.7058H7.11454C7.08464 41.7058 7.05597 41.7177 7.03482 41.7388C7.01368 41.76 7.0018 41.7887 7.0018 41.8186V41.8186Z" fill="url(#paint8_radial_1_41)"/>
<path d="M7.00179 20.4281C7.00179 20.3094 7.04892 20.1956 7.13283 20.1117C7.21673 20.0278 7.33052 19.9807 7.44918 19.9807H56.5526C56.6713 19.9807 56.7851 20.0278 56.869 20.1117C56.9529 20.1956 57 20.3094 57 20.4281V41.2584C57 41.3771 56.9529 41.4909 56.869 41.5748C56.7851 41.6587 56.6713 41.7058 56.5526 41.7058H7.44739C7.32873 41.7058 7.21494 41.6587 7.13104 41.5748C7.04714 41.4909 7 41.3771 7 41.2584V20.4281H7.00179Z" fill="url(#paint9_linear_1_41)"/>
<path d="M7.00179 20.4281C7.00179 20.3094 7.04892 20.1956 7.13283 20.1117C7.21673 20.0278 7.33052 19.9807 7.44918 19.9807H56.5526C56.6713 19.9807 56.7851 20.0278 56.869 20.1117C56.9529 20.1956 57 20.3094 57 20.4281V41.2584C57 41.3771 56.9529 41.4909 56.869 41.5748C56.7851 41.6587 56.6713 41.7058 56.5526 41.7058H7.44739C7.32873 41.7058 7.21494 41.6587 7.13104 41.5748C7.04714 41.4909 7 41.3771 7 41.2584V20.4281H7.00179Z" fill="url(#paint10_linear_1_41)"/>
<path d="M7.00179 20.4281C7.00179 20.3094 7.04892 20.1956 7.13283 20.1117C7.21673 20.0278 7.33052 19.9807 7.44918 19.9807H56.5526C56.6713 19.9807 56.7851 20.0278 56.869 20.1117C56.9529 20.1956 57 20.3094 57 20.4281V41.2584C57 41.3771 56.9529 41.4909 56.869 41.5748C56.7851 41.6587 56.6713 41.7058 56.5526 41.7058H7.44739C7.32873 41.7058 7.21494 41.6587 7.13104 41.5748C7.04714 41.4909 7 41.3771 7 41.2584V20.4281H7.00179Z" fill="url(#paint11_linear_1_41)"/>
<path d="M7.00179 20.4281C7.00179 20.3094 7.04892 20.1956 7.13283 20.1117C7.21673 20.0278 7.33052 19.9807 7.44918 19.9807H56.5526C56.6713 19.9807 56.7851 20.0278 56.869 20.1117C56.9529 20.1956 57 20.3094 57 20.4281V41.2584C57 41.3771 56.9529 41.4909 56.869 41.5748C56.7851 41.6587 56.6713 41.7058 56.5526 41.7058H7.44739C7.32873 41.7058 7.21494 41.6587 7.13104 41.5748C7.04714 41.4909 7 41.3771 7 41.2584V20.4281H7.00179Z" fill="url(#paint12_linear_1_41)"/>
<path d="M7.00179 20.4281C7.00179 20.3094 7.04892 20.1956 7.13283 20.1117C7.21673 20.0278 7.33052 19.9807 7.44918 19.9807H56.5526C56.6713 19.9807 56.7851 20.0278 56.869 20.1117C56.9529 20.1956 57 20.3094 57 20.4281V41.2584C57 41.3771 56.9529 41.4909 56.869 41.5748C56.7851 41.6587 56.6713 41.7058 56.5526 41.7058H7.44739C7.32873 41.7058 7.21494 41.6587 7.13104 41.5748C7.04714 41.4909 7 41.3771 7 41.2584V20.4281H7.00179Z" fill="url(#paint13_linear_1_41)"/>
<path d="M7.00179 20.4281C7.00179 20.3094 7.04892 20.1956 7.13283 20.1117C7.21673 20.0278 7.33052 19.9807 7.44918 19.9807H56.5526C56.6713 19.9807 56.7851 20.0278 56.869 20.1117C56.9529 20.1956 57 20.3094 57 20.4281V41.2584C57 41.3771 56.9529 41.4909 56.869 41.5748C56.7851 41.6587 56.6713 41.7058 56.5526 41.7058H7.44739C7.32873 41.7058 7.21494 41.6587 7.13104 41.5748C7.04714 41.4909 7 41.3771 7 41.2584V20.4281H7.00179Z" fill="url(#paint14_linear_1_41)"/>
<path d="M7.00179 20.4281C7.00179 20.3094 7.04892 20.1956 7.13283 20.1117C7.21673 20.0278 7.33052 19.9807 7.44918 19.9807H56.5526C56.6713 19.9807 56.7851 20.0278 56.869 20.1117C56.9529 20.1956 57 20.3094 57 20.4281V41.2584C57 41.3771 56.9529 41.4909 56.869 41.5748C56.7851 41.6587 56.6713 41.7058 56.5526 41.7058H7.44739C7.32873 41.7058 7.21494 41.6587 7.13104 41.5748C7.04714 41.4909 7 41.3771 7 41.2584V20.4281H7.00179Z" fill="url(#paint15_radial_1_41)"/>
<g filter="url(#filter3_f_1_41)">
<path d="M55.2928 20.5533H56.1321V41.1331H55.2928V20.5533Z" fill="#8D8D92"/>
</g>
<g filter="url(#filter4_f_1_41)">
<path d="M19.9778 19.5995C19.6181 20.14 19.2799 20.7395 18.9649 21.4034H18.947C18.7846 21.7548 18.525 22.0524 18.1988 22.261C17.8727 22.4696 17.4936 22.5804 17.1065 22.5804C16.7193 22.5804 16.3402 22.4696 16.0141 22.261C15.6879 22.0524 15.4283 21.7548 15.2659 21.4034H15.2605C14.9678 20.778 14.6292 20.175 14.2477 19.5995H19.9778V19.5995Z" fill="#4E474A"/>
</g>
<g filter="url(#filter5_i_1_41)">
<path d="M7.00179 16.5537C7.00179 15.6045 7.37887 14.6941 8.05008 14.0229C8.72129 13.3517 9.63165 12.9746 10.5809 12.9746H53.4209C54.3701 12.9746 55.2805 13.3517 55.9517 14.0229C56.6229 14.6941 57 15.6045 57 16.5537V19.5333C57 19.652 56.9529 19.7658 56.869 19.8497C56.7851 19.9336 56.6713 19.9807 56.5526 19.9807H7.44739C7.32873 19.9807 7.21494 19.9336 7.13104 19.8497C7.04714 19.7658 7 19.652 7 19.5333V16.5537H7.00179Z" fill="#DAD4E6"/>
<path d="M7.00179 16.5537C7.00179 15.6045 7.37887 14.6941 8.05008 14.0229C8.72129 13.3517 9.63165 12.9746 10.5809 12.9746H53.4209C54.3701 12.9746 55.2805 13.3517 55.9517 14.0229C56.6229 14.6941 57 15.6045 57 16.5537V19.5333C57 19.652 56.9529 19.7658 56.869 19.8497C56.7851 19.9336 56.6713 19.9807 56.5526 19.9807H7.44739C7.32873 19.9807 7.21494 19.9336 7.13104 19.8497C7.04714 19.7658 7 19.652 7 19.5333V16.5537H7.00179Z" fill="url(#paint16_linear_1_41)"/>
<path d="M7.00179 16.5537C7.00179 15.6045 7.37887 14.6941 8.05008 14.0229C8.72129 13.3517 9.63165 12.9746 10.5809 12.9746H53.4209C54.3701 12.9746 55.2805 13.3517 55.9517 14.0229C56.6229 14.6941 57 15.6045 57 16.5537V19.5333C57 19.652 56.9529 19.7658 56.869 19.8497C56.7851 19.9336 56.6713 19.9807 56.5526 19.9807H7.44739C7.32873 19.9807 7.21494 19.9336 7.13104 19.8497C7.04714 19.7658 7 19.652 7 19.5333V16.5537H7.00179Z" fill="url(#paint17_linear_1_41)"/>
<path d="M7.00179 16.5537C7.00179 15.6045 7.37887 14.6941 8.05008 14.0229C8.72129 13.3517 9.63165 12.9746 10.5809 12.9746H53.4209C54.3701 12.9746 55.2805 13.3517 55.9517 14.0229C56.6229 14.6941 57 15.6045 57 16.5537V19.5333C57 19.652 56.9529 19.7658 56.869 19.8497C56.7851 19.9336 56.6713 19.9807 56.5526 19.9807H7.44739C7.32873 19.9807 7.21494 19.9336 7.13104 19.8497C7.04714 19.7658 7 19.652 7 19.5333V16.5537H7.00179Z" fill="url(#paint18_linear_1_41)"/>
<path d="M7.00179 16.5537C7.00179 15.6045 7.37887 14.6941 8.05008 14.0229C8.72129 13.3517 9.63165 12.9746 10.5809 12.9746H53.4209C54.3701 12.9746 55.2805 13.3517 55.9517 14.0229C56.6229 14.6941 57 15.6045 57 16.5537V19.5333C57 19.652 56.9529 19.7658 56.869 19.8497C56.7851 19.9336 56.6713 19.9807 56.5526 19.9807H7.44739C7.32873 19.9807 7.21494 19.9336 7.13104 19.8497C7.04714 19.7658 7 19.652 7 19.5333V16.5537H7.00179Z" fill="url(#paint19_radial_1_41)"/>
<path d="M7.00179 16.5537C7.00179 15.6045 7.37887 14.6941 8.05008 14.0229C8.72129 13.3517 9.63165 12.9746 10.5809 12.9746H53.4209C54.3701 12.9746 55.2805 13.3517 55.9517 14.0229C56.6229 14.6941 57 15.6045 57 16.5537V19.5333C57 19.652 56.9529 19.7658 56.869 19.8497C56.7851 19.9336 56.6713 19.9807 56.5526 19.9807H7.44739C7.32873 19.9807 7.21494 19.9336 7.13104 19.8497C7.04714 19.7658 7 19.652 7 19.5333V16.5537H7.00179Z" fill="url(#paint20_linear_1_41)"/>
</g>
<g filter="url(#filter6_iiii_1_41)">
<path d="M32 43.3433C38.9342 43.3433 44.5555 37.722 44.5555 30.7878C44.5555 23.8536 38.9342 18.2323 32 18.2323C25.0658 18.2323 19.4445 23.8536 19.4445 30.7878C19.4445 37.722 25.0658 43.3433 32 43.3433Z" fill="url(#paint21_radial_1_41)"/>
</g>
<g filter="url(#filter7_f_1_41)">
<path d="M32 39.68C36.9111 39.68 40.8923 35.6988 40.8923 30.7878C40.8923 25.8767 36.9111 21.8955 32 21.8955C27.0889 21.8955 23.1077 25.8767 23.1077 30.7878C23.1077 35.6988 27.0889 39.68 32 39.68Z" stroke="url(#paint22_linear_1_41)" stroke-width="0.3"/>
<path d="M32 39.68C36.9111 39.68 40.8923 35.6988 40.8923 30.7878C40.8923 25.8767 36.9111 21.8955 32 21.8955C27.0889 21.8955 23.1077 25.8767 23.1077 30.7878C23.1077 35.6988 27.0889 39.68 32 39.68Z" stroke="url(#paint23_linear_1_41)" stroke-width="0.3"/>
</g>
<path d="M32 39.68C36.9111 39.68 40.8923 35.6988 40.8923 30.7878C40.8923 25.8767 36.9111 21.8955 32 21.8955C27.0889 21.8955 23.1077 25.8767 23.1077 30.7878C23.1077 35.6988 27.0889 39.68 32 39.68Z" fill="url(#paint24_radial_1_41)"/>
<path d="M32 39.68C36.9111 39.68 40.8923 35.6988 40.8923 30.7878C40.8923 25.8767 36.9111 21.8955 32 21.8955C27.0889 21.8955 23.1077 25.8767 23.1077 30.7878C23.1077 35.6988 27.0889 39.68 32 39.68Z" fill="url(#paint25_linear_1_41)"/>
<g filter="url(#filter8_f_1_41)">
<path d="M32 38.5759C36.3013 38.5759 39.7881 35.089 39.7881 30.7878C39.7881 26.4865 36.3013 22.9997 32 22.9997C27.6988 22.9997 24.2119 26.4865 24.2119 30.7878C24.2119 35.089 27.6988 38.5759 32 38.5759Z" fill="url(#paint26_radial_1_41)"/>
<path d="M32 38.5759C36.3013 38.5759 39.7881 35.089 39.7881 30.7878C39.7881 26.4865 36.3013 22.9997 32 22.9997C27.6988 22.9997 24.2119 26.4865 24.2119 30.7878C24.2119 35.089 27.6988 38.5759 32 38.5759Z" fill="url(#paint27_radial_1_41)"/>
</g>
<path d="M32 35.1775C34.4244 35.1775 36.3898 33.2122 36.3898 30.7878C36.3898 28.3634 34.4244 26.398 32 26.398C29.5756 26.398 27.6102 28.3634 27.6102 30.7878C27.6102 33.2122 29.5756 35.1775 32 35.1775Z" fill="url(#paint28_linear_1_41)"/>
<path d="M32 35.1775C34.4244 35.1775 36.3898 33.2122 36.3898 30.7878C36.3898 28.3634 34.4244 26.398 32 26.398C29.5756 26.398 27.6102 28.3634 27.6102 30.7878C27.6102 33.2122 29.5756 35.1775 32 35.1775Z" fill="url(#paint29_radial_1_41)"/>
<path d="M32 35.1775C34.4244 35.1775 36.3898 33.2122 36.3898 30.7878C36.3898 28.3634 34.4244 26.398 32 26.398C29.5756 26.398 27.6102 28.3634 27.6102 30.7878C27.6102 33.2122 29.5756 35.1775 32 35.1775Z" fill="url(#paint30_radial_1_41)"/>
<path d="M36.7124 28.7509C37.3902 28.2768 37.4612 27.2083 36.8709 26.3644C36.2806 25.5205 35.2525 25.2208 34.5747 25.695C33.8968 26.1692 33.8258 27.2377 34.4162 28.0816C35.0065 28.9254 36.0345 29.2251 36.7124 28.7509Z" fill="url(#paint31_linear_1_41)"/>
<g filter="url(#filter9_f_1_41)">
<path d="M14.3282 19.6997C13.0236 17.7473 11.3576 16.8418 9.68254 16.1188C8.91303 15.8307 8.65355 15.5802 8.65355 14.7105C8.65355 14.5261 8.60702 14.0967 8.65355 13.9267C9.25125 13.4793 10.0619 13.4667 10.8672 13.4667L25.6364 12.9746C25.7831 13.1571 25.6364 13.1339 25.6364 13.4667C25.6364 14.2953 25.1138 14.5619 24.4016 14.8769V14.8805C22.6675 15.6124 21.175 17.4574 19.8382 19.6997H14.3264H14.3282Z" fill="#A99A99"/>
</g>
<g filter="url(#filter10_i_1_41)">
<path d="M17.8661 4C18.6804 4 19.3837 4.48139 19.7058 5.17394H19.7237C21.1911 8.28418 23.2205 9.96278 25.3948 10.879V10.8826C25.7544 11.0413 26.0601 11.3012 26.2747 11.6305C26.4893 11.9598 26.6035 12.3444 26.6035 12.7375C26.6035 13.1305 26.4893 13.5151 26.2747 13.8445C26.0601 14.1738 25.7544 14.4336 25.3948 14.5923V14.5977C23.2205 15.5122 21.1929 17.1908 19.7255 20.301C19.5638 20.657 19.3013 20.9579 18.9706 21.1665C18.6399 21.3751 18.2553 21.4824 17.8643 21.475C17.4778 21.4754 17.0993 21.365 16.7736 21.157C16.4479 20.9489 16.1886 20.6519 16.0265 20.301H16.0193C14.5734 17.2337 12.5834 15.5605 10.4431 14.6371C10.0565 14.4923 9.72327 14.2328 9.48804 13.8935C9.25282 13.5542 9.12679 13.1512 9.12679 12.7384C9.12679 12.3255 9.25282 11.9225 9.48804 11.5832C9.72327 11.2439 10.0565 10.9845 10.4431 10.8397C12.5816 9.91446 14.5734 8.24123 16.0193 5.17394H16.0265C16.3486 4.48139 17.0501 4 17.8661 4V4Z" fill="url(#paint32_radial_1_41)"/>
<path d="M17.8661 4C18.6804 4 19.3837 4.48139 19.7058 5.17394H19.7237C21.1911 8.28418 23.2205 9.96278 25.3948 10.879V10.8826C25.7544 11.0413 26.0601 11.3012 26.2747 11.6305C26.4893 11.9598 26.6035 12.3444 26.6035 12.7375C26.6035 13.1305 26.4893 13.5151 26.2747 13.8445C26.0601 14.1738 25.7544 14.4336 25.3948 14.5923V14.5977C23.2205 15.5122 21.1929 17.1908 19.7255 20.301C19.5638 20.657 19.3013 20.9579 18.9706 21.1665C18.6399 21.3751 18.2553 21.4824 17.8643 21.475C17.4778 21.4754 17.0993 21.365 16.7736 21.157C16.4479 20.9489 16.1886 20.6519 16.0265 20.301H16.0193C14.5734 17.2337 12.5834 15.5605 10.4431 14.6371C10.0565 14.4923 9.72327 14.2328 9.48804 13.8935C9.25282 13.5542 9.12679 13.1512 9.12679 12.7384C9.12679 12.3255 9.25282 11.9225 9.48804 11.5832C9.72327 11.2439 10.0565 10.9845 10.4431 10.8397C12.5816 9.91446 14.5734 8.24123 16.0193 5.17394H16.0265C16.3486 4.48139 17.0501 4 17.8661 4V4Z" fill="url(#paint33_radial_1_41)"/>
</g>
<g filter="url(#filter11_f_1_41)">
<path d="M17.8661 6.39084C18.4567 6.39084 18.9685 6.7398 19.2011 7.24445H19.2155C20.282 9.50287 21.7566 10.7215 23.335 11.3873V11.3908C23.5963 11.5061 23.8185 11.6948 23.9744 11.9341C24.1304 12.1733 24.2134 12.4528 24.2134 12.7384C24.2134 13.024 24.1304 13.3034 23.9744 13.5426C23.8185 13.7819 23.5963 13.9706 23.335 14.0859V14.0877C21.7548 14.7534 20.282 15.9721 19.2155 18.2323H19.2011C19.0829 18.487 18.8944 18.7026 18.6577 18.8536C18.421 19.0047 18.146 19.085 17.8652 19.085C17.5845 19.085 17.3095 19.0047 17.0728 18.8536C16.8361 18.7026 16.6476 18.487 16.5293 18.2323H16.524C15.4735 16.0043 14.0276 14.7874 12.4742 14.1163C12.1936 14.011 11.9518 13.8225 11.7812 13.5762C11.6105 13.3298 11.519 13.0372 11.519 12.7375C11.519 12.4378 11.6105 12.1452 11.7812 11.8988C11.9518 11.6524 12.1936 11.464 12.4742 11.3586C14.0276 10.6875 15.4735 9.47065 16.524 7.24266H16.5293C16.6478 6.988 16.8365 6.7725 17.0734 6.62157C17.3102 6.47065 17.5853 6.39059 17.8661 6.39084V6.39084Z" fill="url(#paint34_radial_1_41)"/>
</g>
</g>
<defs>
<filter id="filter0_d_1_41" x="0" y="0" width="64" height="54.9771" filterUnits="userSpaceOnUse" color-interpolation-filters="sRGB">
<feFlood flood-opacity="0" result="BackgroundImageFix"/>
<feColorMatrix in="SourceAlpha" type="matrix" values="0 0 0 0 0 0 0 0 0 0 0 0 0 0 0 0 0 0 127 0" result="hardAlpha"/>
<feOffset dy="3"/>
<feGaussianBlur stdDeviation="3.5"/>
<feComposite in2="hardAlpha" operator="out"/>
<feColorMatrix type="matrix" values="0 0 0 0 0 0 0 0 0 0 0 0 0 0 0 0 0 0 0.25 0"/>
<feBlend mode="normal" in2="BackgroundImageFix" result="effect1_dropShadow_1_41"/>
<feBlend mode="normal" in="SourceGraphic" in2="effect1_dropShadow_1_41" result="shape"/>
</filter>
<filter id="filter1_i_1_41" x="41.0605" y="11.1994" width="10.5548" height="3.17075" filterUnits="userSpaceOnUse" color-interpolation-filters="sRGB">
<feFlood flood-opacity="0" result="BackgroundImageFix"/>
<feBlend mode="normal" in="SourceGraphic" in2="BackgroundImageFix" result="shape"/>
<feColorMatrix in="SourceAlpha" type="matrix" values="0 0 0 0 0 0 0 0 0 0 0 0 0 0 0 0 0 0 127 0" result="hardAlpha"/>
<feOffset dy="0.15"/>
<feGaussianBlur stdDeviation="0.2"/>
<feComposite in2="hardAlpha" operator="arithmetic" k2="-1" k3="1"/>
<feColorMatrix type="matrix" values="0 0 0 0 0.701961 0 0 0 0 0.709804 0 0 0 0 0.713726 0 0 0 1 0"/>
<feBlend mode="normal" in2="shape" result="effect1_innerShadow_1_41"/>
</filter>
<filter id="filter2_i_1_41" x="12.4546" y="11.1994" width="7.10272" height="3.17075" filterUnits="userSpaceOnUse" color-interpolation-filters="sRGB">
<feFlood flood-opacity="0" result="BackgroundImageFix"/>
<feBlend mode="normal" in="SourceGraphic" in2="BackgroundImageFix" result="shape"/>
<feColorMatrix in="SourceAlpha" type="matrix" values="0 0 0 0 0 0 0 0 0 0 0 0 0 0 0 0 0 0 127 0" result="hardAlpha"/>
<feOffset dy="0.15"/>
<feGaussianBlur stdDeviation="0.2"/>
<feComposite in2="hardAlpha" operator="arithmetic" k2="-1" k3="1"/>
<feColorMatrix type="matrix" values="0 0 0 0 0.701961 0 0 0 0 0.709804 0 0 0 0 0.713726 0 0 0 1 0"/>
<feBlend mode="normal" in2="shape" result="effect1_innerShadow_1_41"/>
</filter>
<filter id="filter3_f_1_41" x="54.6428" y="19.9033" width="2.1393" height="21.8798" filterUnits="userSpaceOnUse" color-interpolation-filters="sRGB">
<feFlood flood-opacity="0" result="BackgroundImageFix"/>
<feBlend mode="normal" in="SourceGraphic" in2="BackgroundImageFix" result="shape"/>
<feGaussianBlur stdDeviation="0.325" result="effect1_foregroundBlur_1_41"/>
</filter>
<filter id="filter4_f_1_41" x="13.5977" y="18.9495" width="7.03014" height="4.28093" filterUnits="userSpaceOnUse" color-interpolation-filters="sRGB">
<feFlood flood-opacity="0" result="BackgroundImageFix"/>
<feBlend mode="normal" in="SourceGraphic" in2="BackgroundImageFix" result="shape"/>
<feGaussianBlur stdDeviation="0.325" result="effect1_foregroundBlur_1_41"/>
</filter>
<filter id="filter5_i_1_41" x="7" y="12.9746" width="50" height="7.10607" filterUnits="userSpaceOnUse" color-interpolation-filters="sRGB">
<feFlood flood-opacity="0" result="BackgroundImageFix"/>
<feBlend mode="normal" in="SourceGraphic" in2="BackgroundImageFix" result="shape"/>
<feColorMatrix in="SourceAlpha" type="matrix" values="0 0 0 0 0 0 0 0 0 0 0 0 0 0 0 0 0 0 127 0" result="hardAlpha"/>
<feOffset dy="0.1"/>
<feGaussianBlur stdDeviation="0.15"/>
<feComposite in2="hardAlpha" operator="arithmetic" k2="-1" k3="1"/>
<feColorMatrix type="matrix" values="0 0 0 0 0.796078 0 0 0 0 0.8 0 0 0 0 0.803922 0 0 0 1 0"/>
<feBlend mode="normal" in2="shape" result="effect1_innerShadow_1_41"/>
</filter>
<filter id="filter6_iiii_1_41" x="19.2945" y="18.0823" width="25.411" height="25.411" filterUnits="userSpaceOnUse" color-interpolation-filters="sRGB">
<feFlood flood-opacity="0" result="BackgroundImageFix"/>
<feBlend mode="normal" in="SourceGraphic" in2="BackgroundImageFix" result="shape"/>
<feColorMatrix in="SourceAlpha" type="matrix" values="0 0 0 0 0 0 0 0 0 0 0 0 0 0 0 0 0 0 127 0" result="hardAlpha"/>
<feOffset dy="-0.15"/>
<feGaussianBlur stdDeviation="0.075"/>
<feComposite in2="hardAlpha" operator="arithmetic" k2="-1" k3="1"/>
<feColorMatrix type="matrix" values="0 0 0 0 0.545098 0 0 0 0 0.529412 0 0 0 0 0.580392 0 0 0 1 0"/>
<feBlend mode="normal" in2="shape" result="effect1_innerShadow_1_41"/>
<feColorMatrix in="SourceAlpha" type="matrix" values="0 0 0 0 0 0 0 0 0 0 0 0 0 0 0 0 0 0 127 0" result="hardAlpha"/>
<feOffset dx="0.15"/>
<feGaussianBlur stdDeviation="0.075"/>
<feComposite in2="hardAlpha" operator="arithmetic" k2="-1" k3="1"/>
<feColorMatrix type="matrix" values="0 0 0 0 0.564706 0 0 0 0 0.54902 0 0 0 0 0.6 0 0 0 1 0"/>
<feBlend mode="normal" in2="effect1_innerShadow_1_41" result="effect2_innerShadow_1_41"/>
<feColorMatrix in="SourceAlpha" type="matrix" values="0 0 0 0 0 0 0 0 0 0 0 0 0 0 0 0 0 0 127 0" result="hardAlpha"/>
<feOffset dy="0.15"/>
<feGaussianBlur stdDeviation="0.075"/>
<feComposite in2="hardAlpha" operator="arithmetic" k2="-1" k3="1"/>
<feColorMatrix type="matrix" values="0 0 0 0 0.619608 0 0 0 0 0.623529 0 0 0 0 0.631373 0 0 0 1 0"/>
<feBlend mode="normal" in2="effect2_innerShadow_1_41" result="effect3_innerShadow_1_41"/>
<feColorMatrix in="SourceAlpha" type="matrix" values="0 0 0 0 0 0 0 0 0 0 0 0 0 0 0 0 0 0 127 0" result="hardAlpha"/>
<feOffset dx="-0.15" dy="0.1"/>
<feGaussianBlur stdDeviation="0.125"/>
<feComposite in2="hardAlpha" operator="arithmetic" k2="-1" k3="1"/>
<feColorMatrix type="matrix" values="0 0 0 0 0.803922 0 0 0 0 0.803922 0 0 0 0 0.823529 0 0 0 1 0"/>
<feBlend mode="normal" in2="effect3_innerShadow_1_41" result="effect4_innerShadow_1_41"/>
</filter>
<filter id="filter7_f_1_41" x="22.5577" y="21.3455" width="18.8845" height="18.8845" filterUnits="userSpaceOnUse" color-interpolation-filters="sRGB">
<feFlood flood-opacity="0" result="BackgroundImageFix"/>
<feBlend mode="normal" in="SourceGraphic" in2="BackgroundImageFix" result="shape"/>
<feGaussianBlur stdDeviation="0.2" result="effect1_foregroundBlur_1_41"/>
</filter>
<filter id="filter8_f_1_41" x="23.4619" y="22.2497" width="17.0762" height="17.0762" filterUnits="userSpaceOnUse" color-interpolation-filters="sRGB">
<feFlood flood-opacity="0" result="BackgroundImageFix"/>
<feBlend mode="normal" in="SourceGraphic" in2="BackgroundImageFix" result="shape"/>
<feGaussianBlur stdDeviation="0.375" result="effect1_foregroundBlur_1_41"/>
</filter>
<filter id="filter9_f_1_41" x="7.88287" y="12.2246" width="18.5687" height="8.22513" filterUnits="userSpaceOnUse" color-interpolation-filters="sRGB">
<feFlood flood-opacity="0" result="BackgroundImageFix"/>
<feBlend mode="normal" in="SourceGraphic" in2="BackgroundImageFix" result="shape"/>
<feGaussianBlur stdDeviation="0.375" result="effect1_foregroundBlur_1_41"/>
</filter>
<filter id="filter10_i_1_41" x="9.12679" y="3.75" width="17.7267" height="17.7253" filterUnits="userSpaceOnUse" color-interpolation-filters="sRGB">
<feFlood flood-opacity="0" result="BackgroundImageFix"/>
<feBlend mode="normal" in="SourceGraphic" in2="BackgroundImageFix" result="shape"/>
<feColorMatrix in="SourceAlpha" type="matrix" values="0 0 0 0 0 0 0 0 0 0 0 0 0 0 0 0 0 0 127 0" result="hardAlpha"/>
<feOffset dx="0.25" dy="-0.25"/>
<feGaussianBlur stdDeviation="0.375"/>
<feComposite in2="hardAlpha" operator="arithmetic" k2="-1" k3="1"/>
<feColorMatrix type="matrix" values="0 0 0 0 0.823529 0 0 0 0 0.666667 0 0 0 0 0.254902 0 0 0 1 0"/>
<feBlend mode="normal" in2="shape" result="effect1_innerShadow_1_41"/>
</filter>
<filter id="filter11_f_1_41" x="10.019" y="4.89084" width="15.6944" height="15.6942" filterUnits="userSpaceOnUse" color-interpolation-filters="sRGB">
<feFlood flood-opacity="0" result="BackgroundImageFix"/>
<feBlend mode="normal" in="SourceGraphic" in2="BackgroundImageFix" result="shape"/>
<feGaussianBlur stdDeviation="0.75" result="effect1_foregroundBlur_1_41"/>
</filter>
<linearGradient id="paint0_linear_1_41" x1="41.6743" y1="12.7098" x2="52.4688" y2="12.7098" gradientUnits="userSpaceOnUse">
<stop offset="0.197" stop-color="#949597"/>
<stop offset="0.624" stop-color="#C1C2C4"/>
</linearGradient>
<radialGradient id="paint1_radial_1_41" cx="0" cy="0" r="1" gradientUnits="userSpaceOnUse" gradientTransform="translate(48.8897 11.9832) rotate(90) scale(0.391464 3.01986)">
<stop stop-color="#CFD0D2"/>
<stop offset="1" stop-color="#CFD0D2" stop-opacity="0"/>
</radialGradient>
<linearGradient id="paint2_linear_1_41" x1="12.8679" y1="12.7098" x2="20.1317" y2="12.7098" gradientUnits="userSpaceOnUse">
<stop offset="0.197" stop-color="#949597"/>
<stop offset="0.624" stop-color="#C1C2C4"/>
</linearGradient>
<radialGradient id="paint3_radial_1_41" cx="0" cy="0" r="1" gradientUnits="userSpaceOnUse" gradientTransform="translate(17.723 11.9832) rotate(90) scale(0.391464 2.03191)">
<stop stop-color="#CFD0D2"/>
<stop offset="1" stop-color="#CFD0D2" stop-opacity="0"/>
</radialGradient>
<linearGradient id="paint4_linear_1_41" x1="32" y1="41.7058" x2="32" y2="44.9771" gradientUnits="userSpaceOnUse">
<stop stop-color="#CFC6DE"/>
<stop offset="1" stop-color="#C3B4D7"/>
</linearGradient>
<linearGradient id="paint5_linear_1_41" x1="34.4606" y1="44.9771" x2="34.4606" y2="42.461" gradientUnits="userSpaceOnUse">
<stop stop-color="#AC91C9"/>
<stop offset="1" stop-color="#C2B3D6" stop-opacity="0"/>
</linearGradient>
<linearGradient id="paint6_linear_1_41" x1="32" y1="41.7058" x2="32" y2="42.6292" gradientUnits="userSpaceOnUse">
<stop stop-color="#CFCBD7"/>
<stop offset="1" stop-color="#CFCBD7" stop-opacity="0"/>
</linearGradient>
<radialGradient id="paint7_radial_1_41" cx="0" cy="0" r="1" gradientUnits="userSpaceOnUse" gradientTransform="translate(55.767 41.0079) rotate(90) scale(3.46724 2.24639)">
<stop offset="0.242" stop-color="#F7F4FE"/>
<stop offset="1" stop-color="#C8BCDB" stop-opacity="0"/>
</radialGradient>
<radialGradient id="paint8_radial_1_41" cx="0" cy="0" r="1" gradientUnits="userSpaceOnUse" gradientTransform="translate(28.8683 36.7577) rotate(90) scale(8.22075 11.6019)">
<stop offset="0.645" stop-color="#9884AF"/>
<stop offset="1" stop-color="#9884AF" stop-opacity="0"/>
</radialGradient>
<linearGradient id="paint9_linear_1_41" x1="39.6611" y1="30.8432" x2="55.767" y2="30.8432" gradientUnits="userSpaceOnUse">
<stop stop-color="#66636F"/>
<stop offset="1" stop-color="#6B6873"/>
</linearGradient>
<linearGradient id="paint10_linear_1_41" x1="7.00179" y1="33.8497" x2="11.8121" y2="33.9052" gradientUnits="userSpaceOnUse">
<stop offset="0.342" stop-color="#5E5C64"/>
<stop offset="1" stop-color="#5E5C64" stop-opacity="0"/>
</linearGradient>
<linearGradient id="paint11_linear_1_41" x1="6.38797" y1="31.1654" x2="8.45669" y2="31.1654" gradientUnits="userSpaceOnUse">
<stop stop-color="#8F8F91"/>
<stop offset="1" stop-color="#6D6C71" stop-opacity="0"/>
</linearGradient>
<linearGradient id="paint12_linear_1_41" x1="32" y1="19.9807" x2="32" y2="21.3228" gradientUnits="userSpaceOnUse">
<stop stop-color="#706F76"/>
<stop offset="1" stop-color="#706F76" stop-opacity="0"/>
</linearGradient>
<linearGradient id="paint13_linear_1_41" x1="32" y1="19.9807" x2="32" y2="20.5677" gradientUnits="userSpaceOnUse">
<stop stop-color="#5F5E65"/>
<stop offset="1" stop-color="#5F5E65" stop-opacity="0"/>
</linearGradient>
<linearGradient id="paint14_linear_1_41" x1="37.9288" y1="41.7058" x2="37.9288" y2="40.616" gradientUnits="userSpaceOnUse">
<stop stop-color="#5C536A"/>
<stop offset="1" stop-color="#5C536A" stop-opacity="0"/>
</linearGradient>
<radialGradient id="paint15_radial_1_41" cx="0" cy="0" r="1" gradientUnits="userSpaceOnUse" gradientTransform="translate(27.7506 34.2394) rotate(53.678) scale(15.2007 15.1427)">
<stop offset="0.597" stop-color="#4B4357"/>
<stop offset="1" stop-color="#524C5D" stop-opacity="0"/>
</radialGradient>
<linearGradient id="paint16_linear_1_41" x1="32" y1="12.9746" x2="32" y2="15.8969" gradientUnits="userSpaceOnUse">
<stop stop-color="#D8D8DC"/>
<stop offset="1" stop-color="#D8D8DC" stop-opacity="0"/>
</linearGradient>
<linearGradient id="paint17_linear_1_41" x1="7.00179" y1="18.9177" x2="9.79885" y2="18.9177" gradientUnits="userSpaceOnUse">
<stop offset="0.22" stop-color="#C6C3CC"/>
<stop offset="1" stop-color="#C6C3CC" stop-opacity="0"/>
</linearGradient>
<linearGradient id="paint18_linear_1_41" x1="56.9982" y1="19.3651" x2="52.4116" y2="19.3651" gradientUnits="userSpaceOnUse">
<stop offset="0.15" stop-color="#F9F7FE"/>
<stop offset="1" stop-color="#D3CDDD" stop-opacity="0"/>
</linearGradient>
<radialGradient id="paint19_radial_1_41" cx="0" cy="0" r="1" gradientUnits="userSpaceOnUse" gradientTransform="translate(56.9968 14.3336) rotate(135.463) scale(3.05981 3.71509)">
<stop offset="0.15" stop-color="#F9F7FE"/>
<stop offset="1" stop-color="#F9F7FE" stop-opacity="0"/>
</radialGradient>
<linearGradient id="paint20_linear_1_41" x1="34.908" y1="19.9807" x2="34.908" y2="19.3651" gradientUnits="userSpaceOnUse">
<stop stop-color="#B6ADC6"/>
<stop offset="1" stop-color="#B6ADC6" stop-opacity="0"/>
</linearGradient>
<radialGradient id="paint21_radial_1_41" cx="0" cy="0" r="1" gradientUnits="userSpaceOnUse" gradientTransform="translate(41.5633 24.9011) rotate(143.867) scale(20.0111)">
<stop stop-color="#A6A2AE"/>
<stop offset="1" stop-color="#A6A2AF"/>
</radialGradient>
<linearGradient id="paint22_linear_1_41" x1="37.8715" y1="21.4893" x2="32" y2="39.6783" gradientUnits="userSpaceOnUse">
<stop stop-color="#6A6375"/>
<stop offset="1" stop-color="#6A6375" stop-opacity="0"/>
</linearGradient>
<linearGradient id="paint23_linear_1_41" x1="26.3522" y1="37.6525" x2="29.5949" y2="33.2341" gradientUnits="userSpaceOnUse">
<stop offset="0.363" stop-color="#B7B6BD"/>
<stop offset="1" stop-color="#B7B6BD" stop-opacity="0"/>
</linearGradient>
<radialGradient id="paint24_radial_1_41" cx="0" cy="0" r="1" gradientUnits="userSpaceOnUse" gradientTransform="translate(36.8661 28.4232) rotate(143.911) scale(11.4877 10.7334)">
<stop offset="0.068" stop-color="#67616D"/>
<stop offset="1" stop-color="#4D3E5C"/>
</radialGradient>
<linearGradient id="paint25_linear_1_41" x1="38.1525" y1="21.8955" x2="25.7366" y2="37.7634" gradientUnits="userSpaceOnUse">
<stop stop-color="#2C2634"/>
<stop offset="0.599" stop-color="#40344C"/>
</linearGradient>
<radialGradient id="paint26_radial_1_41" cx="0" cy="0" r="1" gradientUnits="userSpaceOnUse" gradientTransform="translate(36.2609 28.7173) rotate(143.911) scale(10.0608 9.40013)">
<stop offset="0.068" stop-color="#67616D"/>
<stop offset="1" stop-color="#4D3E5C"/>
</radialGradient>
<radialGradient id="paint27_radial_1_41" cx="0" cy="0" r="1" gradientUnits="userSpaceOnUse" gradientTransform="translate(36.2497 27.5296) rotate(147.397) scale(13.0776 12.6536)">
<stop offset="0.78" stop-color="#554863" stop-opacity="0"/>
<stop offset="0.985" stop-color="#554863"/>
</radialGradient>
<linearGradient id="paint28_linear_1_41" x1="34.2924" y1="34.8554" x2="28.5336" y2="27.1944" gradientUnits="userSpaceOnUse">
<stop stop-color="#463755"/>
<stop offset="1" stop-color="#473F51"/>
</linearGradient>
<radialGradient id="paint29_radial_1_41" cx="0" cy="0" r="1" gradientUnits="userSpaceOnUse" gradientTransform="translate(29.0916 34.0721) rotate(-48.614) scale(7.52829 5.16245)">
<stop stop-color="#544E5C"/>
<stop offset="1" stop-color="#544E5C" stop-opacity="0"/>
</radialGradient>
<radialGradient id="paint30_radial_1_41" cx="0" cy="0" r="1" gradientUnits="userSpaceOnUse" gradientTransform="translate(36.3899 27.0813) rotate(146.088) scale(4.00947)">
<stop stop-color="#544E5C"/>
<stop offset="1" stop-color="#544E5C" stop-opacity="0"/>
</radialGradient>
<linearGradient id="paint31_linear_1_41" x1="35.6431" y1="25.8518" x2="36.3046" y2="29.0952" gradientUnits="userSpaceOnUse">
<stop offset="0.051" stop-color="#F3F2F4"/>
<stop offset="1" stop-color="#F3F2F4" stop-opacity="0"/>
</linearGradient>
<radialGradient id="paint32_radial_1_41" cx="0" cy="0" r="1" gradientUnits="userSpaceOnUse" gradientTransform="translate(23.3887 7.23014) rotate(140.711) scale(6.35857 11.1275)">
<stop stop-color="#FFFF9C"/>
<stop offset="1" stop-color="#EAC73C"/>
</radialGradient>
<radialGradient id="paint33_radial_1_41" cx="0" cy="0" r="1" gradientUnits="userSpaceOnUse" gradientTransform="translate(22.102 7.45383) rotate(136.736) scale(2.61109 4.74221)">
<stop offset="0.172" stop-color="#FFFCA0"/>
<stop offset="1" stop-color="#FFFCA0" stop-opacity="0"/>
</radialGradient>
<radialGradient id="paint34_radial_1_41" cx="0" cy="0" r="1" gradientUnits="userSpaceOnUse" gradientTransform="translate(17.8643 12.7384) rotate(90) scale(10.8212)">
<stop offset="0.127" stop-color="#FFEDD9"/>
<stop offset="1" stop-color="#FFEDD9" stop-opacity="0"/>
</radialGradient>
</defs>
</svg>
