<svg viewBox="0 0 699 99" fill="none" xmlns="http://www.w3.org/2000/svg">
<g filter="url(#filter0_d_1_181)">
<path d="M147.672 70.704C145.88 70.704 144.045 70.5547 142.168 70.256C140.333 70 138.563 69.616 136.856 69.104C135.192 68.592 133.699 67.952 132.376 67.184C131.437 66.672 130.776 66.0107 130.392 65.2C130.008 64.3467 129.859 63.4933 129.944 62.64C130.072 61.7867 130.392 61.04 130.904 60.4C131.459 59.7173 132.141 59.2907 132.952 59.12C133.805 58.9067 134.744 59.056 135.768 59.568C137.517 60.5493 139.416 61.2747 141.464 61.744C143.555 62.2133 145.624 62.448 147.672 62.448C150.787 62.448 153.005 61.9787 154.328 61.04C155.651 60.0587 156.312 58.8427 156.312 57.392C156.312 56.1547 155.843 55.1733 154.904 54.448C153.965 53.7227 152.323 53.104 149.976 52.592L142.744 51.056C138.648 50.2027 135.597 48.752 133.592 46.704C131.629 44.6133 130.648 41.8827 130.648 38.512C130.648 36.3787 131.096 34.4373 131.992 32.688C132.888 30.9387 134.147 29.424 135.768 28.144C137.389 26.864 139.309 25.8827 141.528 25.2C143.789 24.5173 146.264 24.176 148.952 24.176C151.341 24.176 153.688 24.4747 155.992 25.072C158.296 25.6267 160.323 26.4587 162.072 27.568C162.925 28.08 163.501 28.7413 163.8 29.552C164.141 30.32 164.248 31.1093 164.12 31.92C164.035 32.688 163.715 33.3707 163.16 33.968C162.648 34.5653 161.987 34.9493 161.176 35.12C160.365 35.2907 159.384 35.0987 158.232 34.544C156.824 33.8187 155.331 33.2853 153.752 32.944C152.173 32.6027 150.552 32.432 148.888 32.432C147.096 32.432 145.56 32.6667 144.28 33.136C143.043 33.6053 142.083 34.2667 141.4 35.12C140.76 35.9733 140.44 36.9547 140.44 38.064C140.44 39.3013 140.888 40.304 141.784 41.072C142.68 41.84 144.237 42.4587 146.456 42.928L153.688 44.464C157.869 45.36 160.984 46.8107 163.032 48.816C165.08 50.7787 166.104 53.3813 166.104 56.624C166.104 58.7573 165.677 60.6987 164.824 62.448C163.971 64.1547 162.733 65.6267 161.112 66.864C159.491 68.1013 157.549 69.0613 155.288 69.744C153.027 70.384 150.488 70.704 147.672 70.704ZM176.576 70.512C174.997 70.512 173.781 70.064 172.928 69.168C172.117 68.2293 171.712 66.928 171.712 65.264V43.376C171.712 41.6693 172.117 40.368 172.928 39.472C173.781 38.5333 174.997 38.064 176.576 38.064C178.112 38.064 179.285 38.5333 180.096 39.472C180.949 40.368 181.376 41.6693 181.376 43.376V65.264C181.376 66.928 180.971 68.2293 180.16 69.168C179.349 70.064 178.155 70.512 176.576 70.512ZM176.576 32.816C174.784 32.816 173.397 32.4107 172.416 31.6C171.477 30.7467 171.008 29.552 171.008 28.016C171.008 26.4373 171.477 25.2427 172.416 24.432C173.397 23.5787 174.784 23.152 176.576 23.152C178.368 23.152 179.733 23.5787 180.672 24.432C181.611 25.2427 182.08 26.4373 182.08 28.016C182.08 29.552 181.611 30.7467 180.672 31.6C179.733 32.4107 178.368 32.816 176.576 32.816ZM193.829 70.576C192.25 70.576 191.034 70.1493 190.181 69.296C189.37 68.4427 188.965 67.2267 188.965 65.648V42.928C188.965 41.3493 189.37 40.1547 190.181 39.344C191.034 38.4907 192.208 38.064 193.701 38.064C195.237 38.064 196.41 38.4907 197.221 39.344C198.032 40.1547 198.437 41.3493 198.437 42.928V47.024L197.733 44.464C198.586 42.5013 199.909 40.9227 201.701 39.728C203.493 38.5333 205.605 37.936 208.037 37.936C210.469 37.936 212.496 38.512 214.117 39.664C215.738 40.816 216.89 42.5867 217.573 44.976H216.677C217.616 42.8 219.045 41.0933 220.965 39.856C222.928 38.576 225.168 37.936 227.685 37.936C230.117 37.936 232.101 38.4267 233.637 39.408C235.216 40.3467 236.389 41.7973 237.157 43.76C237.925 45.68 238.309 48.1333 238.309 51.12V65.648C238.309 67.2267 237.882 68.4427 237.029 69.296C236.218 70.1493 235.045 70.576 233.509 70.576C231.93 70.576 230.714 70.1493 229.861 69.296C229.05 68.4427 228.645 67.2267 228.645 65.648V51.44C228.645 49.3493 228.304 47.8347 227.621 46.896C226.981 45.9147 225.872 45.424 224.293 45.424C222.458 45.424 221.029 46.064 220.005 47.344C218.981 48.624 218.469 50.4373 218.469 52.784V65.648C218.469 67.2267 218.042 68.4427 217.189 69.296C216.378 70.1493 215.205 70.576 213.669 70.576C212.133 70.576 210.938 70.1493 210.085 69.296C209.232 68.4427 208.805 67.2267 208.805 65.648V51.44C208.805 49.3493 208.464 47.8347 207.781 46.896C207.141 45.9147 206.032 45.424 204.453 45.424C202.618 45.424 201.189 46.064 200.165 47.344C199.141 48.624 198.629 50.4373 198.629 52.784V65.648C198.629 68.9333 197.029 70.576 193.829 70.576ZM250.576 82.096C248.997 82.096 247.781 81.6693 246.928 80.816C246.117 80.0053 245.712 78.7893 245.712 77.168V42.928C245.712 41.3493 246.117 40.1547 246.928 39.344C247.781 38.4907 248.955 38.064 250.448 38.064C252.027 38.064 253.221 38.4907 254.032 39.344C254.843 40.1547 255.248 41.3493 255.248 42.928V47.28L254.544 44.784C255.184 42.736 256.464 41.0933 258.384 39.856C260.347 38.576 262.587 37.936 265.104 37.936C267.835 37.936 270.224 38.5973 272.272 39.92C274.363 41.2427 275.984 43.12 277.136 45.552C278.288 47.984 278.864 50.8853 278.864 54.256C278.864 57.6267 278.288 60.5493 277.136 63.024C275.984 65.4987 274.384 67.3973 272.336 68.72C270.288 70.0427 267.877 70.704 265.104 70.704C262.629 70.704 260.432 70.1067 258.512 68.912C256.592 67.6747 255.291 66.0747 254.608 64.112H255.376V77.168C255.376 78.7893 254.949 80.0053 254.096 80.816C253.285 81.6693 252.112 82.096 250.576 82.096ZM262.224 63.472C263.589 63.472 264.784 63.1307 265.808 62.448C266.875 61.7653 267.685 60.7627 268.24 59.44C268.837 58.0747 269.136 56.3467 269.136 54.256C269.136 51.1413 268.496 48.8587 267.216 47.408C265.936 45.9147 264.272 45.168 262.224 45.168C260.859 45.168 259.643 45.488 258.576 46.128C257.552 46.768 256.741 47.7707 256.144 49.136C255.547 50.4587 255.248 52.1653 255.248 54.256C255.248 57.3707 255.888 59.696 257.168 61.232C258.448 62.7253 260.133 63.472 262.224 63.472ZM296.103 70.704C292.305 70.704 289.468 69.6587 287.591 67.568C285.713 65.4347 284.775 62.2773 284.775 58.096V29.232C284.775 27.6107 285.18 26.3947 285.991 25.584C286.844 24.7307 288.06 24.304 289.639 24.304C291.175 24.304 292.348 24.7307 293.159 25.584C294.012 26.3947 294.439 27.6107 294.439 29.232V57.712C294.439 59.4613 294.801 60.7627 295.527 61.616C296.295 62.4267 297.297 62.832 298.535 62.832C298.876 62.832 299.196 62.8107 299.495 62.768C299.793 62.7253 300.113 62.704 300.455 62.704C301.137 62.6187 301.607 62.832 301.863 63.344C302.161 63.8133 302.311 64.7733 302.311 66.224C302.311 67.504 302.055 68.4853 301.543 69.168C301.031 69.808 300.241 70.2347 299.175 70.448C298.748 70.4907 298.257 70.5333 297.703 70.576C297.148 70.6613 296.615 70.704 296.103 70.704ZM322.095 70.704C318.383 70.704 315.183 70.0427 312.495 68.72C309.849 67.3547 307.801 65.456 306.351 63.024C304.943 60.5493 304.239 57.648 304.239 54.32C304.239 51.0773 304.921 48.24 306.286 45.808C307.652 43.3333 309.551 41.4133 311.983 40.048C314.457 38.64 317.252 37.936 320.367 37.936C322.628 37.936 324.676 38.32 326.511 39.088C328.345 39.8133 329.924 40.88 331.247 42.288C332.569 43.6533 333.572 45.3387 334.255 47.344C334.937 49.3067 335.279 51.504 335.279 53.936C335.279 54.7467 335.023 55.3653 334.511 55.792C333.999 56.176 333.252 56.368 332.271 56.368H312.175V51.376H328.303L327.279 52.272C327.279 50.5227 327.023 49.072 326.511 47.92C325.999 46.7253 325.252 45.8293 324.271 45.232C323.332 44.6347 322.159 44.336 320.751 44.336C319.172 44.336 317.828 44.6987 316.719 45.424C315.609 46.1493 314.756 47.1947 314.159 48.56C313.561 49.9253 313.263 51.568 313.263 53.488V54C313.263 57.2427 314.009 59.632 315.503 61.168C317.039 62.704 319.3 63.472 322.287 63.472C323.311 63.472 324.484 63.344 325.807 63.088C327.129 62.832 328.367 62.4267 329.519 61.872C330.5 61.4027 331.375 61.2533 332.143 61.424C332.911 61.552 333.508 61.8933 333.935 62.448C334.361 63.0027 334.596 63.6427 334.639 64.368C334.724 65.0933 334.575 65.8187 334.191 66.544C333.807 67.2267 333.167 67.8027 332.271 68.272C330.82 69.0827 329.177 69.68 327.343 70.064C325.551 70.4907 323.801 70.704 322.095 70.704ZM381.495 70.704C376.631 70.704 372.471 69.744 369.015 67.824C365.559 65.904 362.892 63.216 361.015 59.76C359.18 56.2613 358.263 52.144 358.263 47.408C358.263 43.8667 358.775 40.688 359.799 37.872C360.865 35.0133 362.401 32.5813 364.407 30.576C366.412 28.528 368.844 26.9493 371.703 25.84C374.604 24.7307 377.868 24.176 381.495 24.176C383.628 24.176 385.783 24.4533 387.958 25.008C390.177 25.52 392.097 26.2667 393.719 27.248C394.785 27.8453 395.511 28.592 395.895 29.488C396.279 30.384 396.385 31.28 396.215 32.176C396.087 33.072 395.724 33.84 395.127 34.48C394.572 35.12 393.868 35.5253 393.015 35.696C392.161 35.8667 391.201 35.6747 390.135 35.12C388.855 34.352 387.511 33.7973 386.103 33.456C384.695 33.1147 383.265 32.944 381.815 32.944C378.956 32.944 376.545 33.52 374.583 34.672C372.663 35.7813 371.212 37.4027 370.231 39.536C369.249 41.6693 368.759 44.2933 368.759 47.408C368.759 50.48 369.249 53.104 370.231 55.28C371.212 57.456 372.663 59.12 374.583 60.272C376.545 61.3813 378.956 61.936 381.815 61.936C383.18 61.936 384.567 61.7653 385.975 61.424C387.425 61.0827 388.812 60.5493 390.135 59.824C391.244 59.2693 392.225 59.0773 393.079 59.248C393.975 59.376 394.7 59.76 395.255 60.4C395.852 60.9973 396.215 61.7227 396.343 62.576C396.513 63.4293 396.428 64.2827 396.087 65.136C395.745 65.9893 395.105 66.7147 394.167 67.312C392.588 68.3787 390.647 69.2107 388.343 69.808C386.039 70.4053 383.756 70.704 381.495 70.704ZM407.389 70.576C405.81 70.576 404.594 70.1493 403.741 69.296C402.93 68.4427 402.525 67.2267 402.525 65.648V29.232C402.525 27.6107 402.93 26.3947 403.741 25.584C404.594 24.7307 405.81 24.304 407.389 24.304C408.925 24.304 410.098 24.7307 410.909 25.584C411.762 26.3947 412.189 27.6107 412.189 29.232V44.464H411.293C412.274 42.3733 413.725 40.7733 415.645 39.664C417.607 38.512 419.826 37.936 422.301 37.936C424.818 37.936 426.887 38.4267 428.509 39.408C430.13 40.3467 431.346 41.7973 432.157 43.76C432.967 45.68 433.373 48.1333 433.373 51.12V65.648C433.373 67.2267 432.946 68.4427 432.093 69.296C431.282 70.1493 430.087 70.576 428.509 70.576C426.973 70.576 425.778 70.1493 424.925 69.296C424.114 68.4427 423.709 67.2267 423.709 65.648V51.568C423.709 49.392 423.303 47.8347 422.493 46.896C421.725 45.9147 420.53 45.424 418.909 45.424C416.861 45.424 415.218 46.064 413.981 47.344C412.786 48.624 412.189 50.3307 412.189 52.464V65.648C412.189 68.9333 410.589 70.576 407.389 70.576ZM451.211 70.704C448.907 70.704 446.838 70.256 445.003 69.36C443.168 68.464 441.739 67.248 440.715 65.712C439.691 64.176 439.179 62.448 439.179 60.528C439.179 58.224 439.776 56.4107 440.971 55.088C442.166 53.7227 444.107 52.7627 446.795 52.208C449.483 51.6107 453.046 51.312 457.483 51.312H460.875V56.304H457.547C455.371 56.304 453.6 56.432 452.235 56.688C450.912 56.9013 449.952 57.2853 449.355 57.84C448.8 58.3947 448.523 59.1627 448.523 60.144C448.523 61.3387 448.928 62.32 449.739 63.088C450.592 63.856 451.808 64.24 453.387 64.24C454.624 64.24 455.712 63.9627 456.651 63.408C457.632 62.8107 458.4 62.0213 458.955 61.04C459.51 60.016 459.787 58.864 459.787 57.584V50.224C459.787 48.3467 459.36 47.024 458.507 46.256C457.654 45.4453 456.203 45.04 454.155 45.04C453.003 45.04 451.744 45.1893 450.379 45.488C449.056 45.744 447.584 46.192 445.963 46.832C445.024 47.2587 444.192 47.3653 443.467 47.152C442.742 46.896 442.187 46.4693 441.803 45.872C441.419 45.232 441.227 44.5493 441.227 43.824C441.227 43.056 441.44 42.3307 441.867 41.648C442.294 40.9227 442.998 40.3893 443.979 40.048C445.984 39.2373 447.862 38.6827 449.611 38.384C451.403 38.0853 453.046 37.936 454.539 37.936C457.824 37.936 460.512 38.4267 462.603 39.408C464.736 40.3467 466.336 41.8187 467.403 43.824C468.47 45.7867 469.003 48.3253 469.003 51.44V65.648C469.003 67.2267 468.619 68.4427 467.851 69.296C467.083 70.1493 465.974 70.576 464.523 70.576C463.072 70.576 461.942 70.1493 461.131 69.296C460.363 68.4427 459.979 67.2267 459.979 65.648V63.28L460.427 63.664C460.171 65.1147 459.616 66.3733 458.763 67.44C457.952 68.464 456.907 69.2747 455.627 69.872C454.347 70.4267 452.875 70.704 451.211 70.704ZM491.636 70.704C488.692 70.704 486.217 70.2133 484.212 69.232C482.249 68.2507 480.777 66.8213 479.796 64.944C478.857 63.0667 478.388 60.6987 478.388 57.84V45.808H475.7C474.505 45.808 473.567 45.488 472.884 44.848C472.244 44.208 471.924 43.3333 471.924 42.224C471.924 41.0293 472.244 40.1333 472.884 39.536C473.567 38.896 474.505 38.576 475.7 38.576H478.388V33.712C478.388 32.0907 478.815 30.8747 479.668 30.064C480.521 29.2107 481.716 28.784 483.252 28.784C484.831 28.784 486.025 29.2107 486.836 30.064C487.647 30.8747 488.052 32.0907 488.052 33.712V38.576H494.132C495.327 38.576 496.244 38.896 496.884 39.536C497.524 40.1333 497.844 41.0293 497.844 42.224C497.844 43.3333 497.524 44.208 496.884 44.848C496.244 45.488 495.327 45.808 494.132 45.808H488.052V57.456C488.052 59.248 488.457 60.592 489.268 61.488C490.121 62.384 491.465 62.832 493.3 62.832C493.94 62.832 494.537 62.768 495.092 62.64C495.647 62.512 496.159 62.4267 496.628 62.384C497.225 62.3413 497.716 62.5333 498.1 62.96C498.484 63.344 498.676 64.2187 498.676 65.584C498.676 66.608 498.505 67.504 498.164 68.272C497.823 69.04 497.225 69.5947 496.372 69.936C495.817 70.1493 495.049 70.32 494.068 70.448C493.129 70.6187 492.319 70.704 491.636 70.704ZM525.786 70.576C524.165 70.576 522.927 70.128 522.074 69.232C521.221 68.336 520.794 67.0773 520.794 65.456V29.936C520.794 28.272 521.221 27.0133 522.074 26.16C522.97 25.3067 524.229 24.88 525.85 24.88H541.402C546.437 24.88 550.319 26.096 553.05 28.528C555.781 30.96 557.146 34.352 557.146 38.704C557.146 41.52 556.527 43.952 555.29 46C554.053 48.048 552.261 49.6267 549.914 50.736C547.61 51.8453 544.773 52.4 541.402 52.4L541.914 51.312H544.538C546.33 51.312 547.887 51.76 549.21 52.656C550.575 53.5093 551.749 54.832 552.73 56.624L556.698 63.984C557.295 65.0507 557.573 66.096 557.53 67.12C557.487 68.144 557.103 68.976 556.378 69.616C555.653 70.256 554.586 70.576 553.178 70.576C551.77 70.576 550.618 70.2773 549.722 69.68C548.869 69.0827 548.101 68.1653 547.418 66.928L541.274 55.6C540.634 54.4053 539.845 53.5947 538.906 53.168C538.01 52.7413 536.901 52.528 535.578 52.528H530.714V65.456C530.714 67.0773 530.287 68.336 529.434 69.232C528.623 70.128 527.407 70.576 525.786 70.576ZM530.714 45.36H539.61C542.255 45.36 544.239 44.8267 545.562 43.76C546.927 42.6933 547.61 41.0933 547.61 38.96C547.61 36.8693 546.927 35.2907 545.562 34.224C544.239 33.1573 542.255 32.624 539.61 32.624H530.714V45.36ZM578.753 70.704C575.383 70.704 572.439 70.0427 569.922 68.72C567.447 67.3973 565.527 65.4987 564.161 63.024C562.796 60.5493 562.114 57.6267 562.114 54.256C562.114 51.7387 562.498 49.4773 563.266 47.472C564.034 45.4667 565.143 43.76 566.594 42.352C568.087 40.9013 569.858 39.8133 571.906 39.088C573.954 38.32 576.236 37.936 578.753 37.936C582.124 37.936 585.047 38.5973 587.522 39.92C590.039 41.2427 591.98 43.12 593.346 45.552C594.754 47.984 595.458 50.8853 595.458 54.256C595.458 56.816 595.052 59.0987 594.242 61.104C593.474 63.1093 592.364 64.8373 590.914 66.288C589.463 67.7387 587.692 68.848 585.602 69.616C583.554 70.3413 581.271 70.704 578.753 70.704ZM578.753 63.472C580.162 63.472 581.378 63.1307 582.402 62.448C583.426 61.7653 584.236 60.7627 584.834 59.44C585.431 58.0747 585.73 56.3467 585.73 54.256C585.73 51.1413 585.09 48.8587 583.81 47.408C582.53 45.9147 580.844 45.168 578.753 45.168C577.388 45.168 576.172 45.488 575.106 46.128C574.082 46.768 573.271 47.7707 572.674 49.136C572.119 50.4587 571.842 52.1653 571.842 54.256C571.842 57.3707 572.482 59.696 573.762 61.232C575.042 62.7253 576.706 63.472 578.753 63.472ZM616.441 70.704C613.07 70.704 610.126 70.0427 607.609 68.72C605.134 67.3973 603.214 65.4987 601.849 63.024C600.484 60.5493 599.801 57.6267 599.801 54.256C599.801 51.7387 600.185 49.4773 600.953 47.472C601.721 45.4667 602.83 43.76 604.281 42.352C605.774 40.9013 607.545 39.8133 609.593 39.088C611.641 38.32 613.924 37.936 616.441 37.936C619.812 37.936 622.734 38.5973 625.209 39.92C627.726 41.2427 629.668 43.12 631.033 45.552C632.441 47.984 633.145 50.8853 633.145 54.256C633.145 56.816 632.74 59.0987 631.929 61.104C631.161 63.1093 630.052 64.8373 628.601 66.288C627.15 67.7387 625.38 68.848 623.289 69.616C621.241 70.3413 618.958 70.704 616.441 70.704ZM616.441 63.472C617.849 63.472 619.065 63.1307 620.089 62.448C621.113 61.7653 621.924 60.7627 622.521 59.44C623.118 58.0747 623.417 56.3467 623.417 54.256C623.417 51.1413 622.777 48.8587 621.497 47.408C620.217 45.9147 618.532 45.168 616.441 45.168C615.076 45.168 613.86 45.488 612.793 46.128C611.769 46.768 610.958 47.7707 610.361 49.136C609.806 50.4587 609.529 52.1653 609.529 54.256C609.529 57.3707 610.169 59.696 611.449 61.232C612.729 62.7253 614.393 63.472 616.441 63.472ZM644.017 70.576C642.438 70.576 641.222 70.1493 640.369 69.296C639.558 68.4427 639.153 67.2267 639.153 65.648V42.928C639.153 41.3493 639.558 40.1547 640.369 39.344C641.222 38.4907 642.395 38.064 643.889 38.064C645.425 38.064 646.598 38.4907 647.409 39.344C648.219 40.1547 648.625 41.3493 648.625 42.928V47.024L647.921 44.464C648.774 42.5013 650.097 40.9227 651.889 39.728C653.681 38.5333 655.793 37.936 658.225 37.936C660.657 37.936 662.683 38.512 664.305 39.664C665.926 40.816 667.078 42.5867 667.761 44.976H666.865C667.803 42.8 669.233 41.0933 671.153 39.856C673.115 38.576 675.355 37.936 677.873 37.936C680.305 37.936 682.289 38.4267 683.825 39.408C685.403 40.3467 686.577 41.7973 687.345 43.76C688.113 45.68 688.497 48.1333 688.497 51.12V65.648C688.497 67.2267 688.07 68.4427 687.217 69.296C686.406 70.1493 685.233 70.576 683.697 70.576C682.118 70.576 680.902 70.1493 680.049 69.296C679.238 68.4427 678.833 67.2267 678.833 65.648V51.44C678.833 49.3493 678.491 47.8347 677.809 46.896C677.169 45.9147 676.059 45.424 674.481 45.424C672.646 45.424 671.217 46.064 670.193 47.344C669.169 48.624 668.657 50.4373 668.657 52.784V65.648C668.657 67.2267 668.23 68.4427 667.377 69.296C666.566 70.1493 665.393 70.576 663.857 70.576C662.321 70.576 661.126 70.1493 660.273 69.296C659.419 68.4427 658.993 67.2267 658.993 65.648V51.44C658.993 49.3493 658.651 47.8347 657.969 46.896C657.329 45.9147 656.219 45.424 654.641 45.424C652.806 45.424 651.377 46.064 650.353 47.344C649.329 48.624 648.817 50.4373 648.817 52.784V65.648C648.817 68.9333 647.217 70.576 644.017 70.576Z" fill="url(#paint0_linear_1_181)"/>
</g>
<g filter="url(#filter1_d_1_181)">
<g filter="url(#filter2_iii_1_181)">
<path d="M52.8773 30.8749C52.3715 32.8445 50.6489 34.3112 48.6139 35.3317C42.845 37.3251 38.29 39.247 34.5175 41.1095C31.1794 42.7607 31.2151 47.9762 34.5622 49.6036C38.4745 51.5048 43.3865 53.3285 48.843 55.4945C50.3097 56.0746 52.3834 57.7169 52.8981 59.7371C54.5631 66.152 56.6128 72.4608 59.0359 78.6294C60.8835 83.351 65.4563 83.345 67.3158 78.6294C69.7257 72.5035 71.5614 65.8897 73.6291 59.5972C73.8805 58.6424 74.3633 57.7642 75.0348 57.0404C75.7063 56.3165 76.5458 55.7692 77.479 55.4469C82.2278 53.7452 86.9129 51.8706 91.5248 49.8268C95.2735 48.1755 95.3509 42.8173 91.6498 41.0619C87.0133 38.8509 82.2767 36.8564 77.4552 35.0848C76.5138 34.7486 75.6636 34.1976 74.9721 33.4757C74.2806 32.7537 73.7668 31.8806 73.4715 30.9255C71.2282 24.0528 69.806 18.2215 67.42 12.17C65.5605 7.45138 60.6842 7.59716 58.8217 12.3128C56.4475 18.3465 54.7904 24.3474 52.8773 30.8749V30.8749Z" fill="url(#paint1_linear_1_181)"/>
</g>
<path d="M52.8773 30.8749C52.3715 32.8445 50.6489 34.3112 48.6139 35.3317C42.845 37.3251 38.29 39.247 34.5175 41.1095C31.1794 42.7607 31.2151 47.9762 34.5622 49.6036C38.4745 51.5048 43.3865 53.3285 48.843 55.4945C50.3097 56.0746 52.3834 57.7169 52.8981 59.7371C54.5631 66.152 56.6128 72.4608 59.0359 78.6294C60.8835 83.351 65.4563 83.345 67.3158 78.6294C69.7257 72.5035 71.5614 65.8897 73.6291 59.5972C73.8805 58.6424 74.3633 57.7642 75.0348 57.0404C75.7063 56.3165 76.5458 55.7692 77.479 55.4469C82.2278 53.7452 86.9129 51.8706 91.5248 49.8268C95.2735 48.1755 95.3509 42.8173 91.6498 41.0619C87.0133 38.8509 82.2767 36.8564 77.4552 35.0848C76.5138 34.7486 75.6636 34.1976 74.9721 33.4757C74.2806 32.7537 73.7668 31.8806 73.4715 30.9255C71.2282 24.0528 69.806 18.2215 67.42 12.17C65.5605 7.45138 60.6842 7.59716 58.8217 12.3128C56.4475 18.3465 54.7904 24.3474 52.8773 30.8749V30.8749Z" fill="url(#paint2_linear_1_181)"/>
<g filter="url(#filter3_ii_1_181)">
<path d="M28.9184 15.1362C28.7548 15.7699 28.2014 16.243 27.5468 16.5703C25.6903 17.2129 24.2236 17.8317 23.0097 18.4327C21.9357 18.9623 21.9446 20.6403 23.0246 21.1639C24.2831 21.7768 25.8629 22.3629 27.6183 23.0591C28.0943 23.2466 28.7577 23.7761 28.9273 24.4277C29.4361 26.43 30.1323 28.5483 30.8999 30.506C31.4949 32.0263 32.9676 32.0233 33.5656 30.506C34.3392 28.5364 34.9342 26.4062 35.5977 24.3801C35.6787 24.0726 35.8343 23.7898 36.0507 23.5568C36.2671 23.3238 36.5376 23.1477 36.8383 23.0442C38.3672 22.4975 39.8757 21.8952 41.3606 21.2383C41.6316 21.1172 41.8623 20.9211 42.0256 20.6732C42.1888 20.4252 42.2777 20.1358 42.2817 19.8389C42.2858 19.5421 42.2049 19.2503 42.0485 18.998C41.8921 18.7457 41.6669 18.5433 41.3993 18.4149C40.1259 17.8139 38.5431 17.1147 36.8294 16.4929C36.5263 16.3847 36.2526 16.2074 36.03 15.975C35.8075 15.7426 35.6421 15.4615 35.5471 15.1541C34.8241 12.9406 34.3659 11.0662 33.5983 9.11448C33.0033 7.59714 31.4294 7.64475 30.8314 9.16208C30.0668 11.1049 29.5343 13.0358 28.9184 15.1362V15.1362Z" fill="url(#paint3_linear_1_181)"/>
</g>
<path d="M28.9184 15.1362C28.7548 15.7699 28.2014 16.243 27.5468 16.5703C25.6903 17.2129 24.2236 17.8317 23.0097 18.4327C21.9357 18.9623 21.9446 20.6403 23.0246 21.1639C24.2831 21.7768 25.8629 22.3629 27.6183 23.0591C28.0943 23.2466 28.7577 23.7761 28.9273 24.4277C29.4361 26.43 30.1323 28.5483 30.8999 30.506C31.4949 32.0263 32.9676 32.0233 33.5656 30.506C34.3392 28.5364 34.9342 26.4062 35.5977 24.3801C35.6787 24.0726 35.8343 23.7898 36.0507 23.5568C36.2671 23.3238 36.5376 23.1477 36.8383 23.0442C38.3672 22.4975 39.8757 21.8952 41.3606 21.2383C41.6316 21.1172 41.8623 20.9211 42.0256 20.6732C42.1888 20.4252 42.2777 20.1358 42.2817 19.8389C42.2858 19.5421 42.2049 19.2503 42.0485 18.998C41.8921 18.7457 41.6669 18.5433 41.3993 18.4149C40.1259 17.8139 38.5431 17.1147 36.8294 16.4929C36.5263 16.3847 36.2526 16.2074 36.03 15.975C35.8075 15.7426 35.6421 15.4615 35.5471 15.1541C34.8241 12.9406 34.3659 11.0662 33.5983 9.11448C33.0033 7.59714 31.4294 7.64475 30.8314 9.16208C30.0668 11.1049 29.5343 13.0358 28.9184 15.1362V15.1362Z" fill="url(#paint4_linear_1_181)"/>
<g filter="url(#filter4_i_1_181)">
<path d="M21.3555 57.5324C21.1294 58.4161 20.3558 59.0736 19.4424 59.5317C16.854 60.4243 14.8071 61.2871 13.1142 62.1261C11.6177 62.8669 11.6326 65.2054 13.1351 65.9343C14.8904 66.7912 17.095 67.6093 19.5436 68.5822C20.2041 68.8411 21.1323 69.5789 21.3644 70.4863C22.0784 73.277 23.0483 76.2344 24.1194 78.9656C24.9495 81.0839 27.0023 81.0809 27.8354 78.9656C28.9184 76.2165 29.7395 73.2473 30.6678 70.4209C30.7806 69.9922 30.9973 69.598 31.2988 69.2732C31.6003 68.9483 31.9773 68.7028 32.3963 68.5584C34.5288 67.7956 36.6327 66.955 38.7037 66.0384C39.0807 65.8688 39.4014 65.5951 39.6282 65.2495C39.855 64.9039 39.9785 64.5008 39.9841 64.0874C39.9897 63.6741 39.8773 63.2677 39.6599 62.9161C39.4426 62.5644 39.1295 62.2821 38.7573 62.1023C36.6766 61.1106 34.551 60.2161 32.3874 59.4217C31.9646 59.2708 31.5828 59.0233 31.2724 58.699C30.962 58.3746 30.7315 57.9823 30.5993 57.5533C29.5907 54.468 28.9541 51.8528 27.883 49.1335C27.05 47.0211 24.8572 47.0836 24.0242 49.2019C22.9591 51.9094 22.2123 54.6019 21.3555 57.5324V57.5324Z" fill="url(#paint5_radial_1_181)"/>
</g>
</g>
<defs>
<filter id="filter0_d_1_181" x="119.816" y="17.152" width="578.681" height="78.944" filterUnits="userSpaceOnUse" color-interpolation-filters="sRGB">
<feFlood flood-opacity="0" result="BackgroundImageFix"/>
<feColorMatrix in="SourceAlpha" type="matrix" values="0 0 0 0 0 0 0 0 0 0 0 0 0 0 0 0 0 0 127 0" result="hardAlpha"/>
<feOffset dy="4"/>
<feGaussianBlur stdDeviation="5"/>
<feComposite in2="hardAlpha" operator="out"/>
<feColorMatrix type="matrix" values="0 0 0 0 0 0 0 0 0 0 0 0 0 0 0 0 0 0 0.25 0"/>
<feBlend mode="normal" in2="BackgroundImageFix" result="effect1_dropShadow_1_181"/>
<feBlend mode="normal" in="SourceGraphic" in2="effect1_dropShadow_1_181" result="shape"/>
</filter>
<filter id="filter1_d_1_181" x="0" y="0" width="106.381" height="98.1684" filterUnits="userSpaceOnUse" color-interpolation-filters="sRGB">
<feFlood flood-opacity="0" result="BackgroundImageFix"/>
<feColorMatrix in="SourceAlpha" type="matrix" values="0 0 0 0 0 0 0 0 0 0 0 0 0 0 0 0 0 0 127 0" result="hardAlpha"/>
<feOffset dy="4"/>
<feGaussianBlur stdDeviation="6"/>
<feComposite in2="hardAlpha" operator="out"/>
<feColorMatrix type="matrix" values="0 0 0 0 0 0 0 0 0 0 0 0 0 0 0 0 0 0 0.25 0"/>
<feBlend mode="normal" in2="BackgroundImageFix" result="effect1_dropShadow_1_181"/>
<feBlend mode="normal" in="SourceGraphic" in2="effect1_dropShadow_1_181" result="shape"/>
</filter>
<filter id="filter2_iii_1_181" x="31.6328" y="8.45273" width="62.9987" height="73.9656" filterUnits="userSpaceOnUse" color-interpolation-filters="sRGB">
<feFlood flood-opacity="0" result="BackgroundImageFix"/>
<feBlend mode="normal" in="SourceGraphic" in2="BackgroundImageFix" result="shape"/>
<feColorMatrix in="SourceAlpha" type="matrix" values="0 0 0 0 0 0 0 0 0 0 0 0 0 0 0 0 0 0 127 0" result="hardAlpha"/>
<feOffset dx="0.25" dy="-0.25"/>
<feGaussianBlur stdDeviation="0.25"/>
<feComposite in2="hardAlpha" operator="arithmetic" k2="-1" k3="1"/>
<feColorMatrix type="matrix" values="0 0 0 0 0.937255 0 0 0 0 0.482353 0 0 0 0 0.329412 0 0 0 1 0"/>
<feBlend mode="normal" in2="shape" result="effect1_innerShadow_1_181"/>
<feColorMatrix in="SourceAlpha" type="matrix" values="0 0 0 0 0 0 0 0 0 0 0 0 0 0 0 0 0 0 127 0" result="hardAlpha"/>
<feOffset dx="0.25" dy="0.25"/>
<feGaussianBlur stdDeviation="0.5"/>
<feComposite in2="hardAlpha" operator="arithmetic" k2="-1" k3="1"/>
<feColorMatrix type="matrix" values="0 0 0 0 0.737255 0 0 0 0 0.615686 0 0 0 0 0.415686 0 0 0 1 0"/>
<feBlend mode="normal" in2="effect1_innerShadow_1_181" result="effect2_innerShadow_1_181"/>
<feColorMatrix in="SourceAlpha" type="matrix" values="0 0 0 0 0 0 0 0 0 0 0 0 0 0 0 0 0 0 127 0" result="hardAlpha"/>
<feOffset dx="-0.4" dy="0.25"/>
<feGaussianBlur stdDeviation="0.2"/>
<feComposite in2="hardAlpha" operator="arithmetic" k2="-1" k3="1"/>
<feColorMatrix type="matrix" values="0 0 0 0 1 0 0 0 0 0.901961 0 0 0 0 0.458824 0 0 0 1 0"/>
<feBlend mode="normal" in2="effect2_innerShadow_1_181" result="effect3_innerShadow_1_181"/>
</filter>
<filter id="filter3_ii_1_181" x="22.1094" y="8" width="20.2725" height="23.7451" filterUnits="userSpaceOnUse" color-interpolation-filters="sRGB">
<feFlood flood-opacity="0" result="BackgroundImageFix"/>
<feBlend mode="normal" in="SourceGraphic" in2="BackgroundImageFix" result="shape"/>
<feColorMatrix in="SourceAlpha" type="matrix" values="0 0 0 0 0 0 0 0 0 0 0 0 0 0 0 0 0 0 127 0" result="hardAlpha"/>
<feOffset dx="0.1" dy="0.1"/>
<feGaussianBlur stdDeviation="0.1"/>
<feComposite in2="hardAlpha" operator="arithmetic" k2="-1" k3="1"/>
<feColorMatrix type="matrix" values="0 0 0 0 0.803922 0 0 0 0 0.6 0 0 0 0 0.262745 0 0 0 1 0"/>
<feBlend mode="normal" in2="shape" result="effect1_innerShadow_1_181"/>
<feColorMatrix in="SourceAlpha" type="matrix" values="0 0 0 0 0 0 0 0 0 0 0 0 0 0 0 0 0 0 127 0" result="hardAlpha"/>
<feOffset dx="-0.1" dy="0.1"/>
<feGaussianBlur stdDeviation="0.1"/>
<feComposite in2="hardAlpha" operator="arithmetic" k2="-1" k3="1"/>
<feColorMatrix type="matrix" values="0 0 0 0 1 0 0 0 0 0.882353 0 0 0 0 0.423529 0 0 0 1 0"/>
<feBlend mode="normal" in2="effect1_innerShadow_1_181" result="effect2_innerShadow_1_181"/>
</filter>
<filter id="filter4_i_1_181" x="12" y="47.4308" width="28.1343" height="33.1224" filterUnits="userSpaceOnUse" color-interpolation-filters="sRGB">
<feFlood flood-opacity="0" result="BackgroundImageFix"/>
<feBlend mode="normal" in="SourceGraphic" in2="BackgroundImageFix" result="shape"/>
<feColorMatrix in="SourceAlpha" type="matrix" values="0 0 0 0 0 0 0 0 0 0 0 0 0 0 0 0 0 0 127 0" result="hardAlpha"/>
<feOffset dx="0.15" dy="-0.15"/>
<feGaussianBlur stdDeviation="0.15"/>
<feComposite in2="hardAlpha" operator="arithmetic" k2="-1" k3="1"/>
<feColorMatrix type="matrix" values="0 0 0 0 1 0 0 0 0 0.458824 0 0 0 0 0.462745 0 0 0 1 0"/>
<feBlend mode="normal" in2="shape" result="effect1_innerShadow_1_181"/>
</filter>
<linearGradient id="paint0_linear_1_181" x1="410" y1="5" x2="410" y2="92" gradientUnits="userSpaceOnUse">
<stop stop-color="white"/>
<stop offset="1" stop-color="#A2D2FF"/>
</linearGradient>
<linearGradient id="paint1_linear_1_181" x1="83.5454" y1="31.3658" x2="50.5894" y2="66.0563" gradientUnits="userSpaceOnUse">
<stop stop-color="#FFCF5A"/>
<stop offset="1" stop-color="#FEA254"/>
</linearGradient>
<linearGradient id="paint2_linear_1_181" x1="49.7028" y1="84.9755" x2="67.6669" y2="47.0837" gradientUnits="userSpaceOnUse">
<stop stop-color="#FF886D"/>
<stop offset="1" stop-color="#FF886D" stop-opacity="0"/>
</linearGradient>
<linearGradient id="paint3_linear_1_181" x1="38.79" y1="15.2939" x2="28.1835" y2="26.4597" gradientUnits="userSpaceOnUse">
<stop stop-color="#FFDA72"/>
<stop offset="1" stop-color="#F7A967"/>
</linearGradient>
<linearGradient id="paint4_linear_1_181" x1="32.2446" y1="33.4752" x2="32.2446" y2="21.2026" gradientUnits="userSpaceOnUse">
<stop stop-color="#FDA071"/>
<stop offset="1" stop-color="#FDA071" stop-opacity="0"/>
</linearGradient>
<radialGradient id="paint5_radial_1_181" cx="0" cy="0" r="1" gradientUnits="userSpaceOnUse" gradientTransform="translate(35.6006 53.0726) rotate(127.221) scale(21.0523 20.5009)">
<stop offset="0.365" stop-color="#FFBC64"/>
<stop offset="1" stop-color="#FF8F6B"/>
</radialGradient>
</defs>
</svg>
