<svg width="57" height="57" viewBox="0 0 57 57" fill="none" xmlns="http://www.w3.org/2000/svg">
<circle cx="28.5" cy="28.5" r="28.5" fill="url(#paint0_radial_1_182)"/>
<path d="M18.2785 14.1572L45.0946 27.0562C45.3657 27.1864 45.5945 27.3911 45.7548 27.6466C45.915 27.9021 46 28.198 46 28.5001C46 28.8022 45.915 29.0981 45.7548 29.3536C45.5945 29.6091 45.3657 29.8138 45.0946 29.944L18.2785 42.843C18.0036 42.9754 17.6967 43.0257 17.3942 42.9877C17.0918 42.9497 16.8065 42.8251 16.5724 42.6288C16.3383 42.4325 16.1652 42.1726 16.0737 41.8802C15.9823 41.5878 15.9762 41.275 16.0564 40.9793L18.7393 31.0871C18.7721 30.9658 18.8397 30.857 18.9336 30.7741C19.0275 30.6913 19.1436 30.6381 19.2674 30.6211L32.2618 28.8457C32.3162 28.8379 32.3676 28.8162 32.411 28.7825C32.4545 28.7489 32.4886 28.7045 32.51 28.6537L32.5329 28.5743C32.543 28.5029 32.5287 28.4301 32.4924 28.3678C32.4561 28.3055 32.4 28.2574 32.3331 28.2313L32.2631 28.2121L19.2814 26.4367C19.1579 26.4195 19.042 26.3662 18.9484 26.2833C18.8547 26.2005 18.7873 26.0918 18.7545 25.9707L16.0564 16.0222C15.9759 15.7263 15.9817 15.4135 16.073 15.1208C16.1644 14.8282 16.3374 14.5681 16.5716 14.3716C16.8058 14.175 17.0911 14.0503 17.3938 14.0123C17.6964 13.9743 18.0035 14.0246 18.2785 14.1572V14.1572Z" fill="white"/>
<defs>
<radialGradient id="paint0_radial_1_182" cx="0" cy="0" r="1" gradientUnits="userSpaceOnUse" gradientTransform="translate(28.5 28.5) rotate(90) scale(28.5)">
<stop stop-color="#5CB6FF"/>
<stop offset="1" stop-color="#5192EB"/>
</radialGradient>
</defs>
</svg>
